<svg xmlns="http://www.w3.org/2000/svg" xmlns:xlink="http://www.w3.org/1999/xlink" version="1.1" x="0px" y="0px" viewBox="0 0 100 125" enable-background="new 0 0 100 100" xml:space="preserve"><path d="M73.534,40.259c-5.666,1.939-4.253,9.691-4.253,9.691c-2.681,0.262-4.045-2.001-4.045-2.001  c-1.22,5.652,2.741,9.259,4.452,9.441c1.811,0.186,0.907-0.506,0.755-0.715c-3.76-5.237,2.563-6.027,2.563-6.027  c4.591-0.604,5.42,4.746,5.42,4.746c0.3,6.777-5.12,7.227-5.12,7.227c-2.552,0.209-4.468-1.17-6.209-0.852  c-3.944,0.717-2.094,3.195-2.094,3.195c-2.772,0.783-3.489-1.307-3.489-1.307c-1.046-3.521,2.868-3.656,2.868-3.656  c-3.4-3.162-3.652-8-3.652-8c0.297-14.155,14.759-14.077,14.759-14.077c3.848,0.234,6.79,0.889,9.068,1.824  c0,0,4.427,2.88,8.419,2.368l2.092-0.263c0,0-1.014,3.165-5.746,4.05c0,0,10.659,13.773,2.782,26.4c0,0,1.491,4.404-0.14,9.09  c-0.671,1.932-7.473-4.551-4.21,6.676c0,0-3.133-1.041-2.74,1.957c0,0-0.132,4.574,3.393,3.662c0,0,1.389-2.742,3.697-0.785  c0,0,1.006,1.57-0.954,2.611c0,0-8.225,2.48-10.839-7.049c-0.43-1.576-0.125-4.439,3.136-5.746c0,0-6.528,0.391-8.489-1.174  c0,0-2.218-1.047,0-2.875c0,0-8.089-2.609-4.954-6.266c0,0,0.533-6.072,5.738-6.527c1.226-0.105,3.396-1.438,3.79,3.135  c0,0,5.743,4.498,8.614-2.744c0.212-0.535,0.131-1.992-2.219-0.605c0,0-2.996-0.318,2.219-5.268c2.392-2.27,4.964-7.836,0-13.187  c0,0-0.185,6.982-1.738,8.486c-2.699,2.609-5.257-0.867-5.801-2.338c-0.838-2.258,1.584-1.501,1.584-1.501  c1.883,0,2.559-2.109,2.559-2.109C86.028,45.604,80.082,39.432,73.534,40.259c-0.153,0.016-0.295,0.039-0.435,0.061 M89.583,71.422  c-0.223-1.393-2.688,0.994-3.4,1.605c-4.632,3.971-8.644,1.51-10.572-0.299c-1.788-1.676-2.543-1.428-2.983-0.795  c-0.765,1.104,0.501,2.512,1.168,2.936c8.474,5.441,11.208,2.318,13.741-0.006C89.498,73.066,89.74,72.412,89.583,71.422z   M60.557,26.163c0.021-0.139,0.045-0.281,0.062-0.434c0.827-6.549-5.345-12.495-9.49-11.217c0,0-2.11,0.678-2.11,2.56  c0,0,0.757,2.42-1.501,1.583c-1.471-0.544-4.945-3.1-2.337-5.799c1.504-1.555,8.486-1.741,8.486-1.741  c-5.351-4.961-10.918-2.391-13.186,0c-4.951,5.216-5.268,2.219-5.268,2.219c1.386-2.349-0.073-2.432-0.607-2.219  c-7.24,2.872-2.743,8.617-2.743,8.617c4.569,0.392,3.238,2.563,3.135,3.788c-0.456,5.207-6.529,5.74-6.529,5.74  c-3.654,3.133-6.266-4.957-6.266-4.957c-1.828,2.218-2.875,0-2.875,0c-1.564-1.959-1.174-8.488-1.174-8.488  c-1.306,3.262-4.168,3.567-5.745,3.134c-9.531-2.613-7.05-10.838-7.05-10.838C6.403,6.153,7.97,7.157,7.97,7.157  c1.957,2.308-0.783,3.696-0.783,3.696c-0.914,3.524,3.661,3.394,3.661,3.394c3,0.392,1.958-2.742,1.958-2.742  c11.226,3.265,4.742-3.537,6.676-4.209c4.685-1.63,9.089-0.139,9.089-0.139c12.627-7.875,26.399,2.782,26.399,2.782  c0.886-4.731,4.049-5.745,4.049-5.745l-0.263,2.09c-0.509,3.993,2.372,8.421,2.372,8.421c0.931,2.278,1.585,5.218,1.82,9.067  c0,0,0.078,14.462-14.077,14.759c0,0-4.836-0.253-7.999-3.652c0,0-0.133,3.915-3.657,2.868c0,0-2.092-0.716-1.304-3.491  c0,0,2.476,1.852,3.194-2.093c0.316-1.742-1.062-3.656-0.852-6.209c0,0,0.449-5.42,7.226-5.119c0,0,5.35,0.829,4.745,5.418  c0,0-0.791,6.323-6.028,2.565c-0.209-0.153-0.896-1.056-0.713,0.753c0.18,1.713,3.79,5.673,9.44,4.454c0,0-2.263-1.366-2.001-4.045  c0,0,7.753,1.412,9.693-4.253 M26.012,11.726c-2.323,2.535-5.445,5.267-0.004,13.742c0.422,0.666,1.833,1.932,2.934,1.167  c0.635-0.44,0.883-1.194-0.792-2.983c-1.81-1.929-4.271-5.941-0.3-10.572c0.61-0.713,2.996-3.176,1.604-3.401  C28.464,9.521,27.808,9.764,26.012,11.726z M68.904,35.178c-2.222,0-4.019-1.799-4.019-4.018c0-1.506,0.863-2.769,2.091-3.457  l-0.473-0.483c0,0-4.6-5.688-0.744-11.157c0,0,6.339-7.208-0.622-10.937c0,0,3.603-3.853,9.196,4.101c0,0,4.848-1.739,4.973,1.865  c0,0,9.197-2.984,10.315-1.616l0.163,0.3c1.368,1.118-1.615,10.315-1.615,10.315c3.603,0.124,1.862,4.972,1.862,4.972  c7.956,5.594,4.104,9.197,4.104,9.197c-3.729-6.96-10.938-0.62-10.938-0.62c-4.734,3.337-9.626,0.341-10.857-0.526  C71.648,34.326,70.396,35.178,68.904,35.178z M74.301,28.904c1.259,2.28,4.52,2.04,5.867,1.23c5.76-3.465,8.401-2.753,8.401-2.753  s-1.51-4.77-5.941-0.797c-1.065,0.959-3.126,4.046-5.503,1.594c-1.076-1.113-1.812-3.475,4.926-3.765c0,0,4.709,0.217,3.838-2.463  c-0.327-1.016-2.605,0.217-4.27,0.144c-0.488-0.021-3.389-0.448,0-1.956c1.43-0.637,5.028-0.782,3.762-4.996  c-0.24-0.807-1.11-1.119-1.11-1.119c-4.127-1.521-4.356,2.334-4.993,3.764c-1.51,3.388-1.936,0.488-1.957,0  c-0.072-1.663,1.159-3.942,0.145-4.271c-2.681-0.87-2.462,3.839-2.462,3.839c-0.29,6.735-2.653,6.002-3.767,4.924  c-2.453-2.377,0.637-4.438,1.592-5.504c3.976-4.428-0.795-5.94-0.795-5.94s0.712,2.642-2.752,8.402  c-0.811,1.347-1.201,4.927,1.231,5.867c0,0,2.856,1.85,6.043-2.351C76.556,22.754,72.924,26.411,74.301,28.904z"/></svg>
