<svg xmlns="http://www.w3.org/2000/svg" xmlns:xlink="http://www.w3.org/1999/xlink" version="1.1" x="0px" y="0px" viewBox="0 0 100 125" enable-background="new 0 0 100 100" xml:space="preserve"><g><path fill-rule="evenodd" clip-rule="evenodd" d="M40.408,37c0.206,0.989,0.129,2-0.083,3H40.5h0.619h17.757h0.797   c-0.21-1-0.293-2.011-0.088-3c0.211-1.015,0.71-2,1.34-3H61v-8h-4v8c-1.334,0-2.667,0-4,0v-8h-6.001v8c-1.333,0-2.666,0-4,0v-8H39   v8h0.075C39.7,35,40.196,35.986,40.408,37z"/><path fill-rule="evenodd" clip-rule="evenodd" d="M66.887,68C66.954,67.676,67,67.344,67,67l0,0c0-1.654-0.813-3.126-2.059-4.037   C64.793,62.854,64.237,62.236,64,62v-2H48.728c-0.553,0-1-0.448-1-1c0-0.553,0.447-1,1-1h13.168   c-0.011-0.014-0.021-0.025-0.038-0.063l0.101-0.02c-0.013,0.011-0.017,0.053-0.023,0.082h0.094   c-0.031-0.063-0.049-0.082-0.062-0.084l0.126-0.024C62.901,57.732,63,57.324,63,56.5l0,0c0-0.825-0.675-1.5-1.5-1.5h-1.337   c-0.482-1.299-0.873-2.604-1.16-3.922c-0.65-2.991-0.719-6.031-0.392-9.078H41.384c0.33,3.047,0.264,6.086-0.387,9.078   c-0.287,1.317-0.679,2.623-1.161,3.922H38.5c-0.825,0-1.5,0.675-1.5,1.5l0,0c0,0.824,0.675,1.5,1.5,1.5h0.06h0.005   c0.067-0.135,0.034-0.068,0.001,0h5.704c0.552,0,1,0.447,1,1c0,0.552-0.448,1-1,1h-8.258c-0.001,0-0.003-0.001-0.004-0.001L36,62   c-0.177,0.306-0.794,0.855-0.942,0.964C33.813,63.875,33,65.348,33,67l0,0c0,0.344,0.046,0.676,0.113,1H66.887z"/><polygon fill-rule="evenodd" clip-rule="evenodd" points="66.997,70 66.997,70 32,70 32,74 68,74 68,70  "/></g></svg>
